<svg width="15" height="15" viewBox="0 0 15 15" fill="none" xmlns="http://www.w3.org/2000/svg">
<g clip-path="url(#clip0)">
<path d="M3.32432 9.06469L2.80219 11.0139L0.893819 11.0542C0.323496 9.99642 0 8.78613 0 7.5C0 6.25632 0.302461 5.08351 0.838594 4.05082H0.839004L2.53799 4.3623L3.28225 6.05109C3.12648 6.50522 3.04157 6.99272 3.04157 7.5C3.04163 8.05055 3.14136 8.57804 3.32432 9.06469Z" fill="#FBBB00"/>
<path d="M14.8689 6.09891C14.955 6.5526 14.9999 7.02114 14.9999 7.5C14.9999 8.03695 14.9435 8.56072 14.8359 9.06595C14.4708 10.7852 13.5168 12.2864 12.1953 13.3488L12.1949 13.3484L10.0549 13.2392L9.75202 11.3485C10.6289 10.8342 11.3142 10.0294 11.6752 9.06595H7.66479V6.09891H11.7338H14.8689Z" fill="#518EF8"/>
<path d="M12.1951 13.3484L12.1955 13.3488C10.9103 14.3819 9.27755 15 7.50023 15C4.64404 15 2.16081 13.4036 0.894043 11.0543L3.32454 9.06472C3.95791 10.7551 5.58855 11.9584 7.50023 11.9584C8.32192 11.9584 9.09172 11.7363 9.75228 11.3485L12.1951 13.3484Z" fill="#28B446"/>
<path d="M12.2873 1.72664L9.85758 3.71578C9.17394 3.28846 8.36581 3.0416 7.50003 3.0416C5.54508 3.0416 3.88395 4.30011 3.2823 6.05109L0.839033 4.05082H0.838623C2.08685 1.64423 4.6014 0 7.50003 0C9.3198 0 10.9883 0.648223 12.2873 1.72664Z" fill="#F14336"/>
</g>
<defs>
<clipPath id="clip0">
<rect width="15" height="15" fill="white"/>
</clipPath>
</defs>
</svg>
