<svg width="153" height="106" viewBox="0 0 153 106" fill="none" xmlns="http://www.w3.org/2000/svg">
<g filter="url(#filter0_d)">
<path d="M29.6091 85.72H38.5691V91H22.7691V62.92H29.6091V85.72ZM55.1116 91.28C52.4716 91.28 50.0449 90.6667 47.8316 89.44C45.6449 88.2133 43.8982 86.5067 42.5916 84.32C41.3116 82.1067 40.6716 79.6267 40.6716 76.88C40.6716 74.1333 41.3116 71.6667 42.5916 69.48C43.8982 67.2933 45.6449 65.5867 47.8316 64.36C50.0449 63.1333 52.4716 62.52 55.1116 62.52C57.7516 62.52 60.1649 63.1333 62.3516 64.36C64.5649 65.5867 66.2982 67.2933 67.5516 69.48C68.8316 71.6667 69.4716 74.1333 69.4716 76.88C69.4716 79.6267 68.8316 82.1067 67.5516 84.32C66.2716 86.5067 64.5382 88.2133 62.3516 89.44C60.1649 90.6667 57.7516 91.28 55.1116 91.28ZM55.1116 85.04C57.3516 85.04 59.1382 84.2933 60.4716 82.8C61.8316 81.3067 62.5116 79.3333 62.5116 76.88C62.5116 74.4 61.8316 72.4267 60.4716 70.96C59.1382 69.4667 57.3516 68.72 55.1116 68.72C52.8449 68.72 51.0316 69.4533 49.6716 70.92C48.3382 72.3867 47.6716 74.3733 47.6716 76.88C47.6716 79.36 48.3382 81.3467 49.6716 82.84C51.0316 84.3067 52.8449 85.04 55.1116 85.04ZM91.9169 71.8C91.4102 70.8667 90.6769 70.16 89.7169 69.68C88.7835 69.1733 87.6769 68.92 86.3969 68.92C84.1835 68.92 82.4102 69.6533 81.0769 71.12C79.7435 72.56 79.0769 74.4933 79.0769 76.92C79.0769 79.5067 79.7702 81.5333 81.1569 83C82.5702 84.44 84.5035 85.16 86.9569 85.16C88.6369 85.16 90.0502 84.7333 91.1969 83.88C92.3702 83.0267 93.2235 81.8 93.7569 80.2H85.0769V75.16H99.9569V81.52C99.4502 83.2267 98.5835 84.8133 97.3569 86.28C96.1569 87.7467 94.6235 88.9333 92.7569 89.84C90.8902 90.7467 88.7835 91.2 86.4369 91.2C83.6635 91.2 81.1835 90.6 78.9969 89.4C76.8369 88.1733 75.1435 86.48 73.9169 84.32C72.7169 82.16 72.1169 79.6933 72.1169 76.92C72.1169 74.1467 72.7169 71.68 73.9169 69.52C75.1435 67.3333 76.8369 65.64 78.9969 64.44C81.1569 63.2133 83.6235 62.6 86.3969 62.6C89.7569 62.6 92.5835 63.4133 94.8769 65.04C97.1969 66.6667 98.7302 68.92 99.4769 71.8H91.9169ZM117.026 91.28C114.386 91.28 111.959 90.6667 109.746 89.44C107.559 88.2133 105.812 86.5067 104.506 84.32C103.226 82.1067 102.586 79.6267 102.586 76.88C102.586 74.1333 103.226 71.6667 104.506 69.48C105.812 67.2933 107.559 65.5867 109.746 64.36C111.959 63.1333 114.386 62.52 117.026 62.52C119.666 62.52 122.079 63.1333 124.266 64.36C126.479 65.5867 128.212 67.2933 129.466 69.48C130.746 71.6667 131.386 74.1333 131.386 76.88C131.386 79.6267 130.746 82.1067 129.466 84.32C128.186 86.5067 126.452 88.2133 124.266 89.44C122.079 90.6667 119.666 91.28 117.026 91.28ZM117.026 85.04C119.266 85.04 121.052 84.2933 122.386 82.8C123.746 81.3067 124.426 79.3333 124.426 76.88C124.426 74.4 123.746 72.4267 122.386 70.96C121.052 69.4667 119.266 68.72 117.026 68.72C114.759 68.72 112.946 69.4533 111.586 70.92C110.252 72.3867 109.586 74.3733 109.586 76.88C109.586 79.36 110.252 81.3467 111.586 82.84C112.946 84.3067 114.759 85.04 117.026 85.04Z" fill="#7CA3FD"/>
</g>
<circle cx="76.5" cy="25.5" r="17.5" fill="white"/>
<path d="M71.5 26C71.5 32.0751 93.5 -4.5 80.5 38C74.4249 38 67 32.0751 67 26C67 19.9249 71.9249 15 78 15C87.5 15 71.5 19.9249 71.5 26Z" fill="#7CA3FD"/>
<rect x="51" width="52" height="52" fill="#7CA3FD"/>
<defs>
<filter id="filter0_d" x="18.769" y="62.52" width="116.617" height="36.76" filterUnits="userSpaceOnUse" color-interpolation-filters="sRGB">
<feFlood flood-opacity="0" result="BackgroundImageFix"/>
<feColorMatrix in="SourceAlpha" type="matrix" values="0 0 0 0 0 0 0 0 0 0 0 0 0 0 0 0 0 0 127 0"/>
<feOffset dy="4"/>
<feGaussianBlur stdDeviation="2"/>
<feColorMatrix type="matrix" values="0 0 0 0 0.486275 0 0 0 0 0.639216 0 0 0 0 0.992157 0 0 0 0.25 0"/>
<feBlend mode="normal" in2="BackgroundImageFix" result="effect1_dropShadow"/>
<feBlend mode="normal" in="SourceGraphic" in2="effect1_dropShadow" result="shape"/>
</filter>
</defs>
</svg>
